# xmcd
#
# Track frame offsets:
#	150
#	14052
#	30398
#	46782
#	61572
#	75063
#	91294
#	107572
#	125851
#	140600
#	154660
#	169006
#	186099
#	198308
#	214073
#	224294
#	235878
#	250894
#	266585
#	282003
#
# Disc length: 3893 seconds
#
# Revision: 0
# Processed by: cddbd v1.5.2PL0 Copyright (c) Steve Scherf et al.
# Submitted via: EasyCDDAExtractor 16.0.6.1
#
DISCID=0c0f3314
DTITLE=Ιακωβίδης Αγάθωνας - Ρεμπέτικα πορτρέτα 2-2-Ιακωβίδης Αγάθωνας
DYEAR=2010
DGENRE=Ρεμπέτικη
TTITLE0=Ιακωβίδης Αγάθωνας - Οφ αμάν [Σπύρος Περιστέρης]
TTITLE1=Ιακωβίδης Αγάθωνας - Φραγκοσυριανή [Μάρκος Βαμβακάρης]
TTITLE2=Ιακωβίδης Αγάθωνας - Ο θερμαστής [Γιώργος Μπάτης]
TTITLE3=Ιακωβίδης Αγάθωνας - Εργάτης τιμημένος [Παναγιώτης Τούντας]
TTITLE4=Ιακωβίδης Αγάθωνας - Θεσσαλονίκη μου [Μ. Χιώτης-Χρ. Κολοκοτρώνης]
TTITLE5=Ιακωβίδης Αγάθωνας - Το χαρέμι στο χαμάμ [Ανέστης Δελλιάς]
TTITLE6=Ιακωβίδης Αγάθωνας - Αγιοθοδωρίτισσα [Βαγγέλης Παπάζογλου]
TTITLE7=Ιακωβίδης Αγάθωνας - Τέτοια ζωή με βάσανα [Μάρκος Βαμβακάρης]
TTITLE8=Ιακωβίδης Αγάθωνας - Η Ελένη η ζωντοχήρα [Γιάννης Εϊζιρίδης ή Γιοβάν Τ
TTITLE8=σαούς]
TTITLE9=Ιακωβίδης Αγάθωνας - Βρε μάγκα, το παράκανες [Μανώλης Χιώτης]
TTITLE10=Ιακωβίδης Αγάθωνας - Δυό χρόνια με κολάκευες [Κώστας Σκαρβέλης]
TTITLE11=Ιακωβίδης Αγάθωνας - Τεχνίτης και κατεργάρης [Κώστας Σκαρβέλης]
TTITLE12=Ιακωβίδης Αγάθωνας-Γλυκερία - Δηλητήριο στη φλέβα [Βασίλης Τσιτσάνης]
TTITLE13=Ιακωβίδης Αγάθωνας - Ερνημάκι [Κώστας Σκαρβέλης]
TTITLE14=Ιακωβίδης Αγάθωνας-Γλυκερία - Τα παιδιά της γειτονιάς σου [παραδ., δι
TTITLE14=ασκ. Μ. Βαμβακάρης]
TTITLE15=Ιακωβίδης Αγάθωνας - Όπου Γιώργος και μάλαμα [Γιώργος Μητσάκης]
TTITLE16=Ιακωβίδης Αγάθωνας - Πες το ναί καί δε θα χάσεις [Κώστας Σκαρβέλης]
TTITLE17=Ιακωβίδης Αγάθωνας - Δροσάτη Πελοπόννησος [Γιάννης Εϊζιρίδης ή Γιοβάν
TTITLE17=Τσαούς]
TTITLE18=Ιακωβίδης Αγάθωνας - Μπεκρής [Κώστας Σκαρβέλης]
TTITLE19=Ιακωβίδης Αγάθωνας - Την είδα απόψε λαϊκά [Στ. Φωτιάδης-Τόλης Μαστρόκ
TTITLE19=αλος]
EXTD=
EXTT0=
EXTT1=
EXTT2=
EXTT3=
EXTT4=
EXTT5=
EXTT6=
EXTT7=
EXTT8=
EXTT9=
EXTT10=
EXTT11=
EXTT12=
EXTT13=
EXTT14=
EXTT15=
EXTT16=
EXTT17=
EXTT18=
EXTT19=
PLAYORDER=
